<svg width="121" height="120" viewBox="0 0 121 120" fill="none" xmlns="http://www.w3.org/2000/svg">
<g clip-path="url(#clip0_383_196)">
<path d="M56.5 65.56L50.94 60L49.0467 61.88L56.5 69.3333L72.5 53.3333L70.62 51.4533L56.5 65.56Z" fill="white"/>
</g>
<path d="M120.5 60C120.5 93.1371 93.6371 120 60.5 120C27.3629 120 0.5 93.1371 0.5 60C0.5 26.8629 27.3629 0 60.5 0C93.6371 0 120.5 26.8629 120.5 60ZM23.2349 60C23.2349 80.581 39.919 97.2651 60.5 97.2651C81.081 97.2651 97.7651 80.581 97.7651 60C97.7651 39.419 81.081 22.7349 60.5 22.7349C39.919 22.7349 23.2349 39.419 23.2349 60Z" fill="white"/>
<defs>
<clipPath id="clip0_383_196">
<rect width="32" height="32" fill="white" transform="translate(44.5 44)"/>
</clipPath>
</defs>
</svg>
