<svg width="121" height="120" viewBox="0 0 121 120" fill="none" xmlns="http://www.w3.org/2000/svg">
<g clip-path="url(#clip0_383_210)">
<path d="M56.5 62.3334C53.38 62.3334 47.1667 63.8934 47.1667 67V69.3334H65.8333V67C65.8333 63.8934 59.62 62.3334 56.5 62.3334ZM50.2867 66.6667C51.4067 65.8934 54.1133 65 56.5 65C58.8867 65 61.5933 65.8934 62.7133 66.6667H50.2867ZM56.5 60C59.0733 60 61.1667 57.9067 61.1667 55.3334C61.1667 52.76 59.0733 50.6667 56.5 50.6667C53.9267 50.6667 51.8333 52.76 51.8333 55.3334C51.8333 57.9067 53.9267 60 56.5 60ZM56.5 53.3334C57.6067 53.3334 58.5 54.2267 58.5 55.3334C58.5 56.44 57.6067 57.3334 56.5 57.3334C55.3933 57.3334 54.5 56.44 54.5 55.3334C54.5 54.2267 55.3933 53.3334 56.5 53.3334ZM65.8867 62.4134C67.4333 63.5334 68.5 65.0267 68.5 67V69.3334H73.8333V67C73.8333 64.3067 69.1667 62.7734 65.8867 62.4134ZM64.5 60C67.0733 60 69.1667 57.9067 69.1667 55.3334C69.1667 52.76 67.0733 50.6667 64.5 50.6667C63.78 50.6667 63.1133 50.84 62.5 51.1334C63.34 52.32 63.8333 53.7734 63.8333 55.3334C63.8333 56.8934 63.34 58.3467 62.5 59.5334C63.1133 59.8267 63.78 60 64.5 60Z" fill="white"/>
</g>
<path d="M120.5 60C120.5 93.1371 93.6371 120 60.5 120C27.3629 120 0.5 93.1371 0.5 60C0.5 26.8629 27.3629 0 60.5 0C93.6371 0 120.5 26.8629 120.5 60ZM23.2349 60C23.2349 80.581 39.919 97.2651 60.5 97.2651C81.081 97.2651 97.7651 80.581 97.7651 60C97.7651 39.419 81.081 22.7349 60.5 22.7349C39.919 22.7349 23.2349 39.419 23.2349 60Z" fill="white"/>
<defs>
<clipPath id="clip0_383_210">
<rect width="32" height="32" fill="white" transform="translate(44.5 44)"/>
</clipPath>
</defs>
</svg>
