<svg width="121" height="120" viewBox="0 0 121 120" fill="none" xmlns="http://www.w3.org/2000/svg">
<g clip-path="url(#clip0_383_203)">
<path d="M71.6667 48H70.3333V45.3333H67.6667V48H54.3333V45.3333H51.6667V48H50.3333C48.8667 48 47.6667 49.2 47.6667 50.6666V72C47.6667 73.4666 48.8667 74.6666 50.3333 74.6666H71.6667C73.1333 74.6666 74.3333 73.4666 74.3333 72V50.6666C74.3333 49.2 73.1333 48 71.6667 48ZM71.6667 72H50.3333V57.3333H71.6667V72ZM71.6667 54.6666H50.3333V50.6666H71.6667V54.6666Z" fill="white"/>
</g>
<path d="M121 60C121 93.1371 94.1371 120 61 120C27.8629 120 1 93.1371 1 60C1 26.8629 27.8629 0 61 0C94.1371 0 121 26.8629 121 60ZM23.7349 60C23.7349 80.581 40.419 97.2651 61 97.2651C81.581 97.2651 98.2651 80.581 98.2651 60C98.2651 39.419 81.581 22.7349 61 22.7349C40.419 22.7349 23.7349 39.419 23.7349 60Z" fill="white"/>
<defs>
<clipPath id="clip0_383_203">
<rect width="32" height="32" fill="white" transform="translate(45 44)"/>
</clipPath>
</defs>
</svg>
